<svg version="1.1" viewBox="0 0 26.458 20.306" xmlns="http://www.w3.org/2000/svg">
 <defs>
  <clipPath id="dasClipPath">
   <path d="m7.9624 4.77c-0.018486 0.090985-0.037699 0.17762-0.061623 0.26679-0.00146-0.00146-0.0029-0.00254-0.0029-0.00399 0 0.00146-0.00146 0.00254-0.00146 0.00254-0.055818-0.064161-0.1033-0.14391-0.14282-0.20771-0.25845-0.431-0.20662-1.0436-0.087722-1.508 0.031899-0.12288 0.07721-0.23924 0.12941-0.3527 0.017036-0.031174 0.054373-0.083735 0.08156-0.12143 0 0 0 0.00108 0.00254 0.00108v-0.00108c0.051111 0.011237 0.10367 0.027912 0.1508 0.045674-0.013412 0.3295 0.0087 0.65755 0.038424 0.98633-0.015589 0.30087-0.046039 0.59847-0.10621 0.89245m-0.11527-1.9245c-0.0029 0.00254-0.00507 0.0058-0.00942 0.00834 0.00435-0.00254 0.00652-0.0058 0.0087-0.00834zm-3.278 2.4298c-0.057636 0.23924-0.1189 0.50748-0.18922 0.76014-0.077935-0.116-0.13013-0.25012-0.17472-0.3759-0.19973-0.55787-0.21387-1.0896-0.063798-1.6587 0.031899-0.11455 0.066698-0.22801 0.1189-0.33711 0.027549-0.060173 0.044586-0.089535 0.063798-0.1189 0 0 0.00146-0.0029 0.0029-0.0029 0.06851-0.00834 0.13448 0.00435 0.19901 0.021024 0.12578 0.035161 0.23779 0.097872 0.34255 0.17218-0.08011 0.51727-0.17907 1.0291-0.29942 1.5402m6.6557-3.3936c-0.42774-0.42085-0.88628-0.99286-1.0266-1.5986-0.01051-0.055823-0.02066-0.11056-0.03045-0.16638-0.07286-0.37916-1.0081 0.25737-0.95915 0.60173 0.021024 0.15623 0.044586 0.30449 0.077573 0.44912 0.049661 0.286 0.08736 0.57309 0.099322 0.86381 0.016312 0.40454 0.010512 0.80835-0.011962 1.2114-0.019936 0.39548-0.073223 0.78878-0.16239 1.173-0.048573-0.18161-0.07286-0.373-0.097509-0.52416 0-0.012687-0.0029-0.025374-0.0058-0.036249 0.051836-0.61732-0.021023-1.2586-0.10911-1.8407-0.028274-0.18306-0.22148-0.13992-0.42665-0.018124-0.046036 0.00254-0.096422 0.00834-0.14463 0.018124-0.80907-0.032261-1.4873 0.79748-1.7693 1.5232-0.17689 0.4542-0.2831 0.94501-0.32116 1.4333-0.0043497 0.033349-0.0072496 0.070323-0.0072496 0.10512-0.023924-0.039511-0.046036-0.079748-0.06706-0.12035-0.17001-0.31754-0.24287-0.66154-0.27694-1.0197-0.041686-0.44187-0.0057997-0.88955-0.022837-1.3329 0.00362-0.026462 0.00652-0.054373 0.00942-0.079748 0.052203-0.48392 0.086277-0.97038 0.10911-1.4572 0.0083373-0.20118-0.32515-0.094247-0.40599-0.058723-0.25483 0.11708-0.48429 0.32878-0.58034 0.59448-0.15515 0.4194-0.15805 0.88556-0.14391 1.326v0.072135c-0.12035-0.026098-0.24359-0.028999-0.37808 0.0032625-0.39983 0.090985-0.71773 0.44731-0.90767 0.79168-0.31972 0.57454-0.40417 1.2992-0.33675 1.9147 0.043136 0.39185 0.13448 0.9403 0.45601 1.2027 0.46797 0.38895 1.0907-0.30087 1.289-0.68547 0.07866-0.15406 0.13448-0.32008 0.19321-0.4832 0.1276 0.26063 0.30522 0.4861 0.54591 0.62566 0.37735 0.22039 0.89064-0.17436 1.1603-0.48791 0.16384 0.16493 0.3817 0.25084 0.64668 0.17943 0.29072-0.07721 0.55642-0.24649 0.77428-0.46507 0.073223 0.10911 0.16239 0.20481 0.28419 0.2773 0.16892 0.10512 0.51038-0.13521 0.62493-0.23236 0.79168-0.67822 1.0472-1.608 1.1096-2.6038 0.15225 0.17472 0.30703 0.35089 0.45166 0.53358 0.3382 0.42701 0.48791 0.8939 0.36031 1.4228-0.089172-0.060173-0.17544-0.15768-0.20372-0.26027-0.12905-0.46544-1.2477 0.31754-1.1542 0.72353 0.065973 0.28528 0.24504 0.49226 0.52162 0.59122 0.36684 0.13158 0.77464-0.028999 1.0857-0.21931 0.84025-0.51618 1.26-1.6881 0.85004-2.6001-0.23344-0.51763-0.70214-0.95371-1.0994-1.347" fill="#0f1177"/>
  </clipPath>
  <clipPath id="cafeClipPath">
   <path d="m13.712 16.486c0.0029 0 0.04314-0.10476 0.04894-0.116 0.02682-0.05872 0.05872-0.11455 0.09062-0.16928v-0.0014c4e-3 -0.0058 0.0054-0.0098 0.0083-0.01377 0.0043-0.0076 0.01124-0.01849 0.01849-0.02791 0.03734-0.05619 0.07721-0.10947 0.116-0.16348 0.04205-0.05365 0.08374-0.10621 0.1247-0.15877 0.0091-0.01269 0.0377-0.04422 0.05872-0.0696 0.08772-0.10114 0.17508-0.19864 0.26426-0.29362 0.16493-0.17943 0.32986-0.3556 0.49915-0.53032 0.0062 0.03154 0.01269 0.06307 0.01885 0.09497 0.08446 0.42049 0.16928 0.84315 0.24867 1.2673 0.12796 0.73005 0.23163 1.463 0.23997 2.2032 0.0029 0.08373 0 0.16747-0.0058 0.25157-0.10874-0.04386-0.21713-0.09389-0.31972-0.14898-0.43752-0.22039-0.82502-0.54881-1.14-0.92507-0.18124-0.21749-0.28455-0.43825-0.31718-0.66626-0.02392-0.17327-0.0083-0.35016 0.04604-0.5325m0.90625-13.014c-0.0029-0.29434 0.0232-0.58216 0.07794-0.87034 0.03117-0.15478 0.07141-0.30739 0.11745-0.46 0.02392-0.076848 0.05039-0.15225 0.07866-0.22909 0.03407-0.039874 0.05437-0.088447 0.06017-0.14753v-0.00109c0.029-0.068873 0.06307-0.13557 0.09352-0.20263 0.13013 0.21822 0.174 0.50023 0.22909 0.73984 0.30232 1.2948 0.3208 2.6295 0.26063 3.9511-0.024649 0.5296-0.10331 1.0472-0.2251 1.5467-0.17472-0.76376-0.33712-1.5261-0.47305-2.2971-0.116-0.6706-0.21351-1.3492-0.21931-2.0299m-3.7119 6.2584c-0.03915 0.23344-0.10621 0.46181-0.16783 0.68982-0.03117 0.11563-0.06742 0.23344-0.10041 0.34944-0.01994 0.05981-0.03987 0.1189-0.05909 0.17762-4e-3 0.01667-0.05582 0.15116-0.06017 0.16783-0.04314 0.10621-0.09135 0.21133-0.14065 0.31464-0.02827 0.05582-0.05945 0.1102-0.08845 0.16384-0.0044 0.0065-0.0073 0.01232-0.01015 0.01812-4e-3 0.0051-0.0083 0.01088-0.01124 0.01667-0.0058 0.0083-0.01124 0.01812-0.01921 0.02501-0.0083 0.0033-0.01704 0.0062-0.02247 0.0069-0.0043 0.0018-0.0058 0.0018-0.0087 0.0029-0.0083 0-0.01414 0.0015-0.02247 0.0015-0.029 0.0025-0.05872 0.0025-0.08772 0.0014 0.0261 0-0.05474-0.0065-0.07431-0.01269-0.039148-0.0098-0.075035-0.02755-0.11201-0.04169-0.00834-4e-3 -0.053286-0.03371-0.064523-0.03951-0.063798-0.04857-0.11817-0.11273-0.16711-0.17762-0.12252-0.15913-0.14862-0.24323-0.19611-0.40708-0.058723-0.19683-0.088447-0.40418-0.10258-0.60971-0.00652-0.09352-0.00761-0.18886-0.00761-0.28347 0-0.04495 0.00108-0.0928 0.00399-0.13883 0-0.013049 7.144e-4 -0.020661 7.144e-4 -0.029362v-0.00979c0.024277-0.23089 0.075751-0.46143 0.13194-0.6869 0.048574-0.20118 0.1131-0.40236 0.18451-0.59666 0.00146-0.0018 0.039874-0.092797 0.043136-0.10512 0.022836-0.052198 0.045311-0.10077 0.070323-0.1508 0.046036-0.099322 0.097509-0.19466 0.1537-0.28854-0.036249 0.064523 0.044586-0.058723 0.098235-0.13376 0.03915-0.00326 0.13086-0.018487 0.1595-0.018487 4e-3 0 0.09461 0.00725 0.09751 0.00399 0.04241 0.0087 0.08301 0.017037 0.12325 0.026462 0.0043 0 0.0069 0.00146 0.0098 0.00146 0.18994 0.075398 0.37481 0.17254 0.55642 0.26607-0.03734 0.51183-0.03734 1.0324-0.1102 1.4964m8.0433-2.8267c0.01849-0.11165 0.04169-0.22076 0.07141-0.32697 0.01631-0.054736 0.03335-0.10802 0.05184-0.15913v-0.0018c0.0029-0.00725 0.0073-0.015224 0.01196-0.026824 0.0058-0.013774 0.01776-0.037336 0.03262-0.06561 0.21387-0.00725 0.4629 0.10186 0.65284 0.27259 0.36539 0.33023 0.29108 0.77645 0.15696 1.1875-0.0025 0.012324-0.01812 0.051473-0.02827 0.079747-0.02175 0.049298-0.04459 0.095697-0.06779 0.14173-0.07721 0.14065-0.15877 0.27948-0.23924 0.4194-0.0044 0.00652-0.07032 0.10766-0.08156 0.13303-0.03552 0.054011-0.06996 0.1073-0.10476 0.15877-0.06307 0.092797-0.1247 0.18342-0.18886 0.27114-0.11128-0.23743-0.18487-0.47921-0.23816-0.78298-0.04024-0.21931-0.058-0.43897-0.06633-0.66118-0.0116-0.29507 0-0.41034 0.03734-0.63943m-4.5833 13.347c0.7808 0.20553 1.471-0.19031 2.031-0.71157 0.42774-0.40019 0.65719-0.97872 0.71592-1.5496 0.05582-0.5064 0.03589-1.0103-0.02066-1.5109-0.06561-0.57346-0.18197-1.1455-0.29724-1.7102-0.04024-0.20118-0.08228-0.40309-0.12107-0.60282-0.05039-0.27005-0.10041-0.54011-0.1537-0.80871 0.36031-0.36358 0.7199-0.73005 1.0762-1.0998 0.22366-0.2309 0.44586-0.4629 0.66625-0.69743 0.02827 0.03335 0.05872 0.06416 0.08845 0.09606 0.43317 0.46906 0.95153 0.86272 1.5145 1.1574 0.81415 0.4281 1.7711 0.53866 2.661 0.31065 0.50785-0.12868 1.0048-0.37626 1.4311-0.67423 0.29362-0.20408 0.55932-0.41396 0.81814-0.66009 0.55098-0.52633 0.99684-1.2839 1.1763-1.5877 0.21496-0.36249 0.33132-0.77718 0.47849-1.1665 0.16203-0.42375-0.43607-0.31609-0.62602-0.23018-0.40635 0.18414-0.75869 0.51691-0.91818 0.93667 0.04459-0.11346-0.06162 0.11455-0.07286 0.13448-0.03625 0.077573-0.07721 0.15623-0.11744 0.23344-0.04205 0.0783-0.08519 0.15478-0.12905 0.23236-0.0203 0.03589-0.17617 0.28782-0.05292 0.09606-0.13666 0.21568-0.16203 0.25374-0.07214 0.11056-0.02429 0.03661-0.04749 0.07141-0.07322 0.10766-0.04712 0.07141-0.10041 0.14282-0.15152 0.21423-0.02465 0.03081-0.0493 0.06452-0.07503 0.09497-0.0025 0.0015-0.02537 0.02972-0.05002 0.05872-0.08011 0.06851-0.15732 0.14101-0.23236 0.21677-0.0058 4e-3 -0.01269 0.01124-0.01994 0.01704-0.02465 0.02066-0.05147 0.04459-0.0783 0.06525-0.0051 0.0033-0.01087 0.0073-0.01377 0.01124-0.02827 0.01812-0.05582 0.03516-0.08265 0.05075-0.0348 0.01667-0.06742 0.03335-0.10186 0.04894 0.09207-0.04386-0.18704 0.05872-0.257 0.07431-0.0116 0.0022-0.02139 0.0036-0.02827 0.0065h-0.0058c-0.06452 0.0098-0.12615 0.01414-0.19031 0.01957-0.32733 0.02356-0.47232 0.0014-0.76884-0.06126-0.76123-0.16493-1.4481-0.55932-2.0172-1.0824-0.17979-0.16566-0.34835-0.34364-0.5035-0.53105 0.02864-0.032986 0.06162-0.072498 0.06742-0.07866 0.10911-0.12615 0.21677-0.25302 0.32298-0.38243 0.46-0.56041 0.85294-1.1843 1.2042-1.8208 0.26316-0.47702 0.43969-1.0936 0.34979-1.6392-0.09207-0.56911-0.60137-0.99721-1.1556-1.09-0.77174-0.12796-1.5576 0.24396-2.1238 0.74854-0.53177 0.4745-0.91347 1.0284-1.1328 1.708-0.29108 0.90622-0.27042 2.0151 0.09062 2.8981 0.08047 0.19828 0.17617 0.39113 0.28238 0.57454-0.39149 0.4252-0.79276 0.84315-1.1886 1.2644-0.06887 0.07286-0.13738 0.14572-0.20734 0.21677-0.16384-0.80146-0.33276-1.5997-0.51328-2.3957 0.01812-0.032262 0.03951-0.063073 0.05727-0.095335 0.35234-0.58723 0.63001-1.2129 0.85874-1.857 0.4397-1.2451 0.54591-2.5555 0.51474-3.8674-0.014865-0.663-0.073588-1.3249-0.18777-1.9759-0.054374-0.30812-0.12651-0.60826-0.21532-0.90622-0.087722-0.29398-0.18451-0.60753-0.3701-0.85475-0.41831-0.56621-1.1846-0.13593-1.6113 0.17327-0.48428 0.35089-0.8475 0.87722-1.1201 1.4028-0.62094 1.1988-0.68982 2.5091-0.53757 3.8264 0.16783 1.4703 0.49915 2.9159 0.80291 4.3615 0.03625 0.17001 0.07032 0.33929 0.10331 0.50857-0.08482 0.12615-0.17327 0.25012-0.2541 0.3788-0.11165 0.1711-0.22366 0.34146-0.344 0.50748-0.01704 0.02719-0.03697 0.05111-0.05582 0.07757-0.01414-0.0087-0.03045-0.01704-0.04676-0.02646 0.07576 0.04132-0.03915-0.03299-0.04459-0.03661-0.04314-0.03371-0.08519-0.06851-0.12687-0.10621-0.11672-0.10222-0.21604-0.21822-0.30522-0.34582-0.04314-0.06017-0.0812-0.12397-0.1131-0.18849-0.01849-0.03226-0.03262-0.06742-0.04749-0.10077-0.0044-0.0069-0.0058-0.01124-0.0073-0.01414-0.0011-0.0051-0.0054-0.01921-0.01667-0.05292-0.28129-0.81379-0.17508-1.7722-0.15805-2.6183 0.0058-0.28528 0.0098-0.57056 0.01559-0.85874 0-0.14246-0.10693-0.18632-0.23489-0.18632-0.30227-0.19647-0.62814-0.34944-0.98628-0.38569-0.18052-0.042049-0.36539-0.064523-0.55787-0.046036-0.82829 0.065611-1.5525 0.66698-2.122 1.2238-0.86309 0.84714-1.3408 1.9973-1.7969 3.0946-0.16566 0.39765-0.28745 0.81016-0.4368 1.2129-0.0029 0.0098-0.019936 0.05619-0.028999 0.08373-0.015587 0.03552-0.028999 0.07431-0.046036 0.11056-0.039511 0.09534-0.084097 0.18886-0.13013 0.28129-0.00435 0.0072-0.010149 0.01957-0.018486 0.03371-0.10766-0.0406-0.21677-0.13702-0.30739-0.25048-0.2773-0.3498-0.36938-0.804-0.41034-1.2404-0.035524-0.39874-0.012324-0.79856 0.049298-1.1901 0.031899-0.20916 0.08011-0.41432 0.13448-0.61732 0.022111-0.088085 0.049661-0.17436 0.077935-0.2628 0.014137-0.042049 0.031174-0.083735 0.046036-0.12578 0.0058-0.015587 0.0087-0.027912 0.012687-0.037699 0.00435-0.00979 0.014137-0.026824 0.028274-0.061623 0.030449-0.078298 0.069598-0.1537 0.10621-0.22909 0.016311-0.036974 0.037699-0.072498 0.058723-0.10802 0.0029-0.00834 0.027912-0.048936 0.044949-0.078298 0.025374-0.033349 0.067061-0.086997 0.083372-0.10875 0.0058-0.00544 0.011237-0.011599 0.018486-0.018124 0.00979 0.00254 0.13158-0.08011 0.10766-0.07576 0.00834-0.00435 0.017036-0.0087 0.026824-0.012687-0.043136 0.022474 0.10331-0.030449 0.116-0.033349-0.044586 0.0029-0.030449 0.00146 0.039149-0.0058 0.065611-0.00689 0.13013-0.00254 0.19321 0 0.10331 0.00435 0.17617 0.027912 0.26824 0.065973 0.44477 0.18959 1.62-0.88954 1.1114-1.1498-1.7969-0.92471-3.4676 0.94972-4.2444 2.3787-0.39403 0.72461-0.688 1.5094-0.93993 2.2942-0.097872 0.30739-0.17073 0.62239-0.24142 0.93522-0.10222-0.24722-0.17001-0.51437-0.25918-0.76775 0.0029-0.05002-0.00652-0.09497-0.031174-0.13557-0.030449-0.04712-0.053286-0.09642-0.083735-0.14427-0.20009-0.30884-1.1531 0.42556-1.0277 0.73585 0.22438 0.5586 0.23852 1.1821 0.59593 1.6856 0.35596 0.49951 1.028 0.07286 1.3318-0.2715 0.50205-0.56802 0.57201-1.3383 0.78443-2.0376 0.043136-0.14427 0.089172-0.28963 0.13666-0.43245-0.019211 0.39439 0.0029 0.78769 0.07286 1.164 0.07721 0.41541 0.26969 0.90187 0.59339 1.185 0.46942 0.41215 1.1299 0.22728 1.6105-0.05945 0.80001-0.47305 1.2212-1.2567 1.5384-2.0836 0.045311 0.42629 0.17907 0.83626 0.45094 1.1426 0.32443 0.36539 0.80581 0.38025 1.2506 0.28093 0.63979-0.14101 1.2104-0.56113 1.6446-1.0534 0.18668 0.45674 0.50604 0.86308 0.96204 1.0563 0.56911 0.24033 1.2963-0.23272 1.7077-0.57744 0.17073-0.14391 0.32842-0.29978 0.47522-0.46471 0.13013 0.64342 0.25338 1.2883 0.37663 1.9317-0.25084 0.25193-0.49915 0.50495-0.74419 0.76231-0.14028 0.14681-0.27984 0.29506-0.41722 0.44586-0.28383 0.31319-0.62348 0.67822-0.91456 1.0755-0.47776 0.6561-0.82466 1.4014-0.57346 2.1706 0.11201 0.34146 0.32479 0.61986 0.57418 0.86889 0.10766 0.10693 0.22148 0.20879 0.33784 0.30775 0.39475 0.33675 0.86562 0.6474 1.3735 0.78008" fill="#0f1177"/>
  </clipPath>
  <clipPath id="accentClipPath">
   <path d="m20.516 2.3108c-0.01414 0.023921-0.02828 0.048571-0.04313 0.071772 0.02247-0.0377 0.03589-0.059452 0.04313-0.071772m1.1737-1.0889c-0.42266 0.11455-0.81125 0.45021-1.0229 0.82756-0.04603 0.080105-0.09062 0.15804-0.13811 0.23779-0.0022 0.00432-0.0043 0.00873-0.0069 0.01232-0.0043 0.00688-0.04966 0.080475-0.06307 0.10259-0.05256 0.076489-0.10911 0.15225-0.16493 0.23236-0.02755 0.038789-0.05872 0.079747-0.09062 0.1189-0.0087 0.00801-0.01559 0.015589-0.02646 0.024651 0-0.00114 0.0029-0.00114 0.0029-0.00114 8e-3 -0.00688 0.01486-0.013769 0.02211-0.022111l7.14e-4 -7.144e-4c-0.0014 0.00217-0.0029 0.00545-5e-3 0.0073 0.0043-0.00401 0.0377-0.03734 0.0348-0.033353-0.0058 0.00688-0.01341 0.016677-0.0261 0.031905 0.0011-0.00114 0.0011 0 0.0011-0.00114 0.06162-0.040597 0.04893-0.030815 0.0014 0.00257 0.07177-0.035162 0.03915-0.015227 0.0043 0.00575 0 0-0.0022 0.00114-0.0043 0.00114 0 7.144e-4 0 7.144e-4 -7.14e-4 7.144e-4 -0.0062 0.0036-0.01051 0.00617-0.0174 0.010872 0.0011-0.00257 0.0019-0.00401 4e-3 -0.00688-0.0022 7.143e-4 -0.0033 0.00143-0.0047 0.00185-0.0014 3.704e-4 -0.0022 0.00114-0.0036 0.00217-0.0029 0.00432-0.0029 0.00432-0.0043 0.00688-0.0043 0.00143-0.0098 0.00401-0.01414 0.00575 0 0 7.14e-4 0 7.14e-4 -3.704e-4l-0.0029 0.00185v0.00143h-0.0014c-0.01414 0.013769 0 0.00114-0.04096 0.039868 0.01414-0.012319 0.02683-0.027907 0.03951-0.039868-0.0083 0.00688-0.0083 0.00545-0.01957 0.013769 0.01124-0.00688 0.01957-0.017037 0.03371-0.028277-0.0493 0.015589-0.09823 0.029726-0.14862 0.042046-0.116 0.027907-0.25628 0.070324-0.373 0.082644-0.28818 0.027907-0.55207 0.20843-0.74818 0.41179-0.1015 0.10295-0.44985 0.54373-0.15043 0.63834 0.15043 0.047852 0.26788 0.098232 0.43825 0.099681 0.16384 0.00143 0.33566-0.039149 0.49226-0.082643 0.41142-0.11708 0.78298-0.35089 1.115-0.61551 0.56077-0.44659 0.95081-1.0429 1.2531-1.6838 0.15225-0.32588 0-0.54953-0.36539-0.44876" fill="#0f1177"/>
  </clipPath>
  <clipPath id="lineLeftClipPath">
   <path d="m0.16821 16.971c-0.10331 0.1305-0.30014 0.49371-0.036974 0.58469 0.32805 0.11201 0.79458-0.23924 0.99286-0.4629 0.018849-0.02356 0.038061-0.04459 0.057998-0.06416-0.029724 0.02646-0.034074 0.03081 0.063073-0.06561-0.021387 0.02066-0.041324 0.04205-0.063073 0.06561 0.023199-0.02356 0.063073-0.05981 0.08011-0.07431 0.010512-8e-3 0.017399-0.01523 0.024649-0.01921-0.00145 0-0.0029 0.0011-0.00435 0.0011-0.17762 0.12325 0.1189-0.09642 0.00435-0.0011 0.054373-0.0377 0.11201-0.07322 0.16928-0.10766 0.014862-0.01015 0.084097-0.04604 0.11165-0.06452 0.038424-0.01812 0.077935-0.03806 0.1189-0.05872 0.14246-0.06887 0.2889-0.12832 0.43644-0.18596 0.00834-0.0033 0.014862-0.0062 0.021024-0.0083-0.12035 0.04205 0.12252-0.04821 0.020662-0.0069 0.0029-0.0014 0.00544-0.0033 0.00834-0.0033 0.057273-0.02066 0.11636-0.03879 0.17508-0.05691 0.11165-0.03516 0.21931-0.07576 0.33204-0.1189-0.13738 0.05292 0.11962-0.03951 0.11672-0.03951 0.33965-0.11201 0.69235-0.19139 1.0451-0.25302 1.306-0.23199 2.8176-0.16928 4.194-0.14246 1.2531 0.02211 2.5062 0.07141 3.7579 0.14246 0.29253-0.39874 0.63363-0.76195 0.91637-1.0755 0.13738-0.14971 0.2773-0.29942 0.41686-0.44622-0.65502-0.02646-1.3064-0.04894-1.9582-0.07105-1.496-0.04894-2.9985-0.07866-4.4945-0.02537-1.2426 0.04459-2.4537 0.23054-3.6169 0.67677-0.036974 0.01559-0.058723 0.02538-0.07286 0.02973-0.039149 0.01414-0.082285 0.02827-0.12325 0.04459-0.14826 0.05184-0.29688 0.10766-0.44187 0.16783-0.28745 0.12035-0.5644 0.27839-0.83336 0.4368-0.53721 0.31283-1.0302 0.71555-1.4181 1.202" fill="#0f1177"/>
  </clipPath>
  <clipPath id="lineRightClipPath">
   <path d="m25.753 15.097c-1.3898 0.22329-2.7803 0.26715-4.1871 0.18777-1.3481-0.07866-2.6882-0.25084-4.0334-0.36539 0.11491 0.56766 0.22946 1.1368 0.29688 1.7113 0.22656 0.02429 0.45456 0.04785 0.68293 0.07177 2.0774 0.22801 4.2495 0.43789 6.2957-0.10621 0.41396-0.11056 0.80255-0.42085 1.0534-0.75833 0.13666-0.18451 0.39584-0.82212-0.10838-0.74093" fill="#0f1177"/>
  </clipPath>
 </defs>
 <g fill="none" stroke="#000" stroke-linecap="round" stroke-linejoin="round">
  <path id="dasPath" d="m4.9249 3.4095c-0.56825-0.18942-0.85966 0.014571-1.0928 0.62653-0.23313 0.61196-0.029141 3.5844 0.67025 2.3167s0.78681-1.8068 0.87423-2.273c0.087423-0.46626 0.21856-2.5644 0.21856-2.5644s-0.19287 4.6285 0.58282 4.2837c0.52454-0.23313 0.59739-0.30598 0.7431-0.9908 0.15107-0.71001 0.30598-2.1564 0.93252-2.273 0.62653-0.11656 0.69939 0.043712 0.69939 0.043712s-0.36426-0.2477-0.87423 0.043712c-0.50997 0.29141-0.9908 3.6135 0.13114 2.8704s0.77224-3.0307 0.77224-3.0307-0.043711 3.6864 0.61196 2.6664c0.65568-1.0199 0.75767-1.2239 0.81595-2.3459 0.058283-1.1219-0.27684-2.2584-0.27684-2.2584s0.4954 1.3842 1.1219 1.9962c0.62653 0.61196 1.2903 1.3494 0.97623 2.2002-0.26652 0.7219-1.1219 1.2531-1.3842 0.39341" clip-path="url(#dasClipPath)" stroke-width="1.4155" pathLength="1"/>
  <path id="cafePath" d="m1.7889 12.176c0.31738 0.83674 0.89445 2.366 1.3849 0.25968s2.4006-4.1375 3.347-4.8473l0.57706-0.4328s-1.1253 0.17312-1.9332 1.3561c-0.80789 1.183-0.57706 4.8185 0.63477 4.5876 1.2118-0.23082 1.2118-1.0387 1.4138-1.4715 0.20197-0.4328 1.3849-3.4047 2.7122-4.126 1.3272-0.72133 1.8755 0.086559 1.8755 0.086559s-1.0099-0.9233-2.3948 0.25968c-1.3849 1.183-1.0964 3.9529-0.14427 4.328 0.95215 0.37509 1.5004-0.34624 1.8466-0.86559 0.34624-0.51936 0.75018-4.0106 0.75018-4.0106s-0.31738 4.0394 0.69247 4.7896c1.0099 0.75018 1.8466-1.5004 2.4237-2.5391 0.57706-1.0387 2.0197-4.5299 1.2118-7.2998-0.80789-2.7699-1.1541-1.5581-2.1063 0.14427-0.95215 1.7023 2.2794 13.561 2.2794 15.465s-0.80789 1.8755-1.5292 1.6158-2.2505-1.0676-1.8466-2.5968c0.40394-1.5292 5.9149-6.2034 6.867-7.9058 0.95215-1.7023 1.4138-3.4624-0.17312-3.347-1.5869 0.11541-1.5292 2.3371-1.5869 2.9719-0.05771 0.63477 1.0676 2.943 2.8565 3.4624 2.838 0.82393 3.6932-1.0964 4.7896-2.6833" clip-path="url(#cafeClipPath)" stroke-width="2.3019" pathLength="1"/>
  <path id="accentPath" d="m19.043 3.5345c1.0676-0.08656 1.5652-0.36046 2.5893-1.9908" clip-path="url(#accentClipPath)" stroke-width="1.0583" pathLength="1"/>
  <path id="lineLeftPath" d="m0.49479 17.18c0.87963-0.87963 2.6389-1.9517 4.5631-1.9792 1.9242-0.02749 7.4769 3e-6 7.4769 3e-6" clip-path="url(#lineLeftClipPath)" stroke-width="1.8521" pathLength="1"/>
  <path id="lineRightPath" d="m17.565 15.751c1.6493 0.21991 5.9375 0.68721 7.9167 0" clip-path="url(#lineRightClipPath)" stroke-width="1.8521" pathLength="1"/>
 </g>
</svg>
