<svg
        xmlns="http://www.w3.org/2000/svg"
        version="1.1"
        id="svg2"
        xml:space="preserve"
        width="372"
        height="372"
        viewBox="0 0 372 372">
    <defs id="defs6">
        <clipPath id="clipPath18">
            <path d="M 0,279 H 279 V 0 H 0 Z" id="path16"/>
        </clipPath>
        <clipPath id="clipPath74">
            <path d="M 0,0 H 279 V 279 H 0 Z" id="path72"/>
        </clipPath>
    </defs>
    <g id="g10"
       transform="matrix(1.3333333,0,0,-1.3333333,0,372)"
    >
        <g id="g12">
        <g id="g14" clip-path="url(#clipPath18)">
            <g id="g20" transform="translate(63.0527,165.2002)">
                <path d="m 0,0 c -1.33,-1.013 -2.764,-2.194 -3.164,-3.902 1.053,-0.392 2.119,0.062 2.859,0.842 1.475,1.436 3.491,2.047 5.389,2.626 5.326,1.519 10.914,1.003 16.369,0.918 2.69,0.033 5.401,-0.337 8.133,-0.231 1.18,1.35 2.33,2.731 3.533,4.113 C 27.242,4.599 21.389,4.851 15.535,4.62 10.082,4.45 4.514,3.164 0,0 m 56.521,40.944 c -1.867,-0.624 -2.615,-2.574 -3.734,-4.03 -0.906,-0.58 -2.141,-0.4 -3.006,-1.096 -0.695,-0.486 -1.129,-1.277 -1.613,-1.952 0.791,-0.495 1.709,-0.811 2.627,-0.537 3.406,0.821 5.978,3.743 7.172,6.94 0.252,0.885 -0.865,1.034 -1.446,0.675 m -34.025,1.001 c 0.518,-3.122 0.58,-6.339 -0.062,-9.439 -0.549,2.193 -0.18,4.514 -0.719,6.728 -1.496,-0.347 -3.236,-0.411 -4.397,-1.624 -1.994,-1.792 -2.593,-4.577 -2.943,-7.15 -1.697,3.586 -0.652,7.635 -0.652,11.411 -1.014,-0.147 -2.078,-0.59 -2.543,-1.559 -0.571,-1.256 -0.528,-2.68 -0.571,-4.041 -1.886,-0.052 -3.396,-1.508 -3.953,-3.249 -0.76,-2.257 -0.812,-4.831 0.221,-7.035 0.221,-0.579 0.801,-0.885 1.402,-0.981 1.688,0.243 2.606,1.92 3.196,3.365 0.58,-0.591 1.076,-1.455 1.951,-1.697 1.107,-0.17 1.888,0.748 2.701,1.37 1.393,-0.813 2.867,-0.147 3.996,0.759 0.506,-0.348 1.119,-0.927 1.762,-0.443 2.625,1.52 3.564,4.63 3.883,7.437 1.433,-1.256 2.541,-3.027 2.318,-4.999 -0.4,0.337 -0.77,0.695 -1.149,1.064 -1.181,-0.453 -2.753,-1.148 -2.742,-2.646 0.391,-1.394 2.088,-1.963 3.344,-1.404 3.49,1.129 5.094,5.98 2.742,8.891 -1.972,2.416 -4.832,4.377 -5.338,7.721 -1.222,-0.127 -2.836,-1.034 -2.447,-2.479 m 40.469,28.404 c 13.133,1.772 26.642,0.822 39.416,-2.721 20.715,-5.822 39.287,-18.816 51.943,-36.219 9.567,-13.089 15.789,-28.645 17.762,-44.763 3.018,-23.044 -2.606,-47.113 -15.703,-66.33 -2.112,16.317 -4.221,32.612 -6.74,48.844 -1.235,7.319 -4.368,14.333 -9.104,20.061 -5.42,6.77 -12.908,11.791 -21.146,14.576 -2.731,1.002 -5.622,1.571 -8.479,2.204 -0.498,0.717 -0.994,1.455 -1.615,2.099 -6.918,6.633 -15.736,11.401 -25.26,12.92 -10.494,1.793 -21.695,0 -30.955,-5.306 -0.506,0.475 -1.014,0.981 -1.498,1.477 1.846,2.099 3.469,4.43 4.725,6.941 0.726,1.666 1.169,3.849 -0.043,5.421 -1.223,1.603 -3.586,1.856 -5.401,1.181 -4.207,-1.55 -6.844,-6.064 -6.633,-10.473 -0.043,-1.941 0.77,-3.734 1.414,-5.528 -0.918,-1.592 -2.49,-2.73 -3.671,-4.155 -0.401,2.11 -1.043,4.177 -1.288,6.308 0.254,1.498 1.319,2.73 1.805,4.166 2.498,6.127 2.479,13.098 1.086,19.544 -0.475,1.402 -0.822,3.512 -2.605,3.722 -2.172,-0.115 -3.946,-1.76 -5.157,-3.427 -2.109,-3.027 -2.88,-6.803 -2.615,-10.42 0.348,-5.168 1.645,-10.21 2.625,-15.251 -0.601,-0.907 -1.203,-1.815 -1.805,-2.743 -0.968,0.854 -1.918,1.836 -2.128,3.132 -0.612,3.038 -0.149,6.17 -0.223,9.24 -2.078,1.075 -4.576,2.024 -6.834,0.896 -4.029,-1.951 -6.664,-5.832 -8.236,-9.914 -0.973,-2.1 -1.51,-4.377 -2.627,-6.424 -2.352,2.51 -2.1,6.265 -1.278,9.366 0.36,1.086 0.657,2.406 1.721,3.027 0.939,0.117 1.941,-0.21 2.826,0.106 1.045,0.538 2.088,1.413 2.279,2.637 -2.121,1.708 -5.294,1.044 -7.322,-0.527 C 7.625,20.556 5.537,14.882 4.154,9.514 3.785,10.547 3.396,11.611 2.951,12.636 1.793,12.213 -0.117,11.401 0.42,9.84 0.801,8.342 1.117,6.739 2.047,5.474 3.143,4.366 4.746,5.452 5.6,6.359 c 1.541,1.91 1.773,4.514 2.49,6.772 0.062,-2.161 0.137,-4.599 1.707,-6.255 1.182,-1.212 3.08,-0.939 4.41,-0.137 2.225,1.16 3.533,3.491 4.43,5.759 C 18.994,11 19.49,9.092 21.23,8.669 c 2.575,-0.569 4.915,1.076 6.635,2.795 0.803,-1.297 1.805,-2.837 3.502,-2.952 2.119,0 3.754,1.634 5.242,2.952 0.286,-1.751 0.791,-3.439 0.916,-5.2 -2.298,-2.879 -5.472,-5.252 -6.97,-8.702 -0.844,-1.791 -0.506,-3.954 0.781,-5.431 0.137,-0.2 0.441,-0.591 0.58,-0.779 -2.447,-5.77 -3.355,-12.078 -3.133,-18.332 0.211,-16.496 10.082,-32.506 24.721,-40.122 0.055,1.762 0.055,3.523 -0.051,5.286 0.442,-0.95 0.178,-2.016 0.19,-3.018 1.222,-18.7 2.984,-37.357 4.808,-56.005 -7.16,1.487 -14.248,3.491 -20.926,6.466 -15.334,6.602 -28.865,17.234 -38.886,30.587 -7.498,9.945 -13.1,21.357 -16.264,33.424 -3.437,13.109 -4.104,26.978 -1.939,40.331 2.351,14.576 8.119,28.593 16.695,40.596 15.25,21.527 39.646,36.418 65.834,39.784"
                      style="fill:#ffffff;fill-opacity:1;fill-rule:nonzero;stroke:none"
                      id="path22"
                />
</g>
            <g
                    id="g24"
                    transform="translate(100.4004,199.0762)">
<path
        d="M 0,0 C -0.055,2.089 0.053,4.378 1.297,6.117 2.553,1.825 2.721,-2.741 2.447,-7.213 2.404,-8.416 2.184,-9.629 1.855,-10.777 1.064,-7.224 0.252,-3.638 0,0"
        style="fill:#ffffff;fill-opacity:1;fill-rule:nonzero;stroke:none"
        id="path26"/>
</g>
            <g
                    id="g28"
                    transform="translate(81.373,200.9648)">
<path
        d="M 0,0 C 0.117,0.359 0.379,0.644 0.812,0.771 0.896,-1.276 1.012,-3.364 0.391,-5.357 -0.602,-3.755 -0.695,-1.75 0,0"
        style="fill:#ffffff;fill-opacity:1;fill-rule:nonzero;stroke:none"
        id="path30"/>
</g>
            <g
                    id="g32"
                    transform="translate(71.9004,199.8994)">
<path
        d="M 0,0 C 0.508,-0.138 1.023,-0.264 1.551,-0.421 1.234,-2.604 0.887,-4.83 0.084,-6.919 -0.916,-4.746 -0.937,-2.226 0,0"
        style="fill:#ffffff;fill-opacity:1;fill-rule:nonzero;stroke:none"
        id="path34"/>
</g>
            <g
                    id="g36"
                    transform="translate(113.1621,184.8594)">
<path
        d="M 0,0 C -1.182,2.268 -1.266,5.116 -0.285,7.468 0.758,7.077 1.939,6.497 2.109,5.252 2.34,3.28 1.002,1.604 0,0"
        style="fill:#ffffff;fill-opacity:1;fill-rule:nonzero;stroke:none"
        id="path38"/>
</g>
            <g
                    id="g40"
                    transform="translate(87.8809,187.6748)">
<path
        d="M 0,0 C 0.928,0.148 1.74,-0.495 2.574,-0.79 2.488,-4.07 1.949,-7.372 0.496,-10.325 -1.436,-10.23 -1.898,-8.047 -1.951,-6.485 -1.932,-4.219 -1.361,-1.855 0,0"
        style="fill:#ffffff;fill-opacity:1;fill-rule:nonzero;stroke:none"
        id="path42"/>
</g>
            <g
                    id="g44"
                    transform="translate(97.6777,162.5635)">
<path
        d="M 0,0 C -0.072,2.509 2.1,4.123 3.607,5.801 3.641,5.294 3.682,4.777 3.734,4.281 3.557,4.323 3.229,4.461 3.092,4.503 1.73,3.237 1.004,1.528 0,0"
        style="fill:#ffffff;fill-opacity:1;fill-rule:nonzero;stroke:none"
        id="path46"/>
</g>
            <g
                    id="g48"
                    transform="translate(159.209,150.2969)">
<path
        d="m 0,0 c -6.549,-1.402 -11.822,-7.203 -12.666,-13.827 -0.717,-5.157 1.234,-10.589 5.031,-14.155 3.121,-2.942 7.405,-4.598 11.697,-4.472 4.924,0.117 9.682,2.563 12.635,6.518 2.91,3.776 4.02,8.872 2.963,13.5 -0.906,4.082 -3.457,7.689 -6.844,10.02 C 9.113,0.085 4.357,0.991 0,0 m -0.168,6.982 c 4.525,0.769 9.272,0.178 13.416,-1.771 6.424,-2.838 11.381,-8.755 13.025,-15.59 1.456,-5.801 0.602,-12.117 -2.404,-17.266 -3.027,-5.358 -8.332,-9.418 -14.322,-10.936 -6.192,-1.731 -13.068,-0.591 -18.457,2.89 -4.59,2.9 -8.102,7.445 -9.705,12.613 -1.992,6.202 -1.244,13.237 2.099,18.849 3.428,5.907 9.577,10.177 16.348,11.211"
        style="fill:#ffffff;fill-opacity:1;fill-rule:nonzero;stroke:none"
        id="path50"/>
</g>
            <g
                    id="g52"
                    transform="translate(160.8555,140.6045)">
<path
        d="M 0,0 C 3.723,1.266 8.068,-1.478 8.543,-5.38 9.26,-9.388 5.58,-13.321 1.551,-12.952 -2.203,-12.795 -5.283,-8.977 -4.555,-5.274 -4.156,-2.869 -2.363,-0.739 0,0"
        style="fill:#ffffff;fill-opacity:1;fill-rule:nonzero;stroke:none"
        id="path54"/>
</g>
            <g
                    id="g56"
                    transform="translate(176.4219,94.7129)">
<path
        d="m 0,0 c -11.633,-1.159 -23.256,-2.268 -34.857,-3.471 -0.78,-0.146 -1.645,-0.05 -2.278,-0.547 -0.685,-1.17 0.041,-2.531 0.485,-3.648 1.697,-3.292 3.988,-6.329 6.675,-8.86 -0.726,2.204 -1.38,4.493 -1.189,6.834 0.062,1.329 0.926,2.71 2.309,2.973 6.949,1.635 13.996,2.691 21.019,4.009 4.672,0.918 9.514,1.286 13.955,3.133 C 4.041,0.603 2.037,0.138 0,0 m 17.404,-1.845 c -0.896,-4.155 -2.162,-8.29 -4.156,-12.066 3.617,1.467 7.277,3.185 9.957,6.097 1.762,1.898 2.699,4.566 2.234,7.16 -0.199,1.097 -0.863,2.205 -2.023,2.468 -2.562,0.739 -5.453,-1.033 -6.012,-3.659 m -6.687,9.376 c 1.551,0.147 3.123,0.496 4.652,0.211 1.192,-0.243 1.94,-1.318 2.436,-2.32 1.519,2.235 4.482,2.805 6.982,2.235 2.699,-0.453 4.916,-2.51 5.875,-5.03 1.551,-3.923 1.149,-8.68 -1.445,-12.076 -4.557,-6.635 -12.561,-9.778 -20.209,-11.033 -1.803,-0.243 -3.016,-1.729 -4.535,-2.552 -6.528,-3.955 -14.375,-5.095 -21.895,-5.021 -6.592,0.033 -13.406,1.867 -18.447,6.286 -5.674,4.81 -8.692,11.919 -10.811,18.858 -0.402,1.192 -0.611,2.596 0.201,3.65 0.653,0.981 1.961,1.138 3.047,1.286 18.036,1.847 36.102,3.692 54.149,5.506"
        style="fill:#ffffff;fill-opacity:1;fill-rule:nonzero;stroke:none"
        id="path58"/>
</g>
            <g
                    id="g60"
                    transform="translate(108.668,167.71)">
<path
        d="m 0,0 c 0.074,-1.425 0.359,-2.753 0.77,-4.093 4.748,-0.284 9.525,-1.16 14.281,-0.569 2.595,0.316 5.717,0.369 7.435,2.637 0.412,0.623 1.256,1.613 0.348,2.204 C 20.357,0.073 17.941,-0.549 15.463,-0.369 10.875,-0.602 6.381,0.168 1.846,0.518 1.234,0.453 0.148,0.887 0,0 m 7.469,13.204 c 9.26,5.306 20.461,7.1 30.955,5.306 C 47.947,16.991 56.766,12.224 63.684,5.59 64.305,4.946 64.801,4.208 65.299,3.491 60.625,3.955 55.869,4.208 51.186,3.754 41.219,2.794 31.41,-0.686 23.531,-6.972 15.125,-13.51 9.25,-23.225 7.395,-33.719 c -1.014,-4.44 -0.688,-9.082 -0.624,-13.617 0.317,-5.674 0.708,-11.316 1.067,-16.99 0.105,-1.763 0.105,-3.524 0.051,-5.285 -14.639,7.615 -24.51,23.626 -24.721,40.121 -0.223,6.255 0.686,12.562 3.133,18.332 -0.139,0.188 -0.444,0.579 -0.58,0.779 1.961,-2.087 4.724,-4.292 7.783,-3.533 2.646,0.865 4.851,3.303 5.041,6.128 0.422,4.06 -0.727,8.016 -1.486,11.961 -0.223,0.58 0.263,1.118 0.58,1.56 1.254,1.551 2.72,2.849 4.132,4.261 2.944,-3.259 7.532,-5.611 11.995,-4.208 5.345,1.624 9.386,6.509 10.588,11.919 -1.108,-0.148 -2.417,-0.106 -3.133,-1.065 -1.76,-2.026 -2.352,-5.254 -5.063,-6.35 -3.174,-0.801 -6.4,0.769 -8.689,2.91"
        style="fill:#86b817;fill-opacity:1;fill-rule:nonzero;stroke:none"
        id="path62"/>
</g>
            <g
                    id="g64"
                    transform="translate(100.7695,167.0664)">
<path
        d="m 0,0 c 0.137,-0.042 0.465,-0.18 0.643,-0.222 l 0.369,-0.179 c 0.177,-2.963 1.095,-5.843 0.886,-8.848 -2.173,0.885 -4.22,2.468 -4.99,4.746 C -2.088,-2.975 -1.361,-1.266 0,0"
        style="fill:#86b817;fill-opacity:1;fill-rule:nonzero;stroke:none"
        id="path66"/>
</g>
</g>
</g>
        <g
                id="g68">
<g
        id="g70"
        clip-path="url(#clipPath74)">
<g
        id="g76"
        transform="translate(97.1914,177.2246)">
<path
        d="M 0,0 C -0.035,-0.02 -0.031,-0.023 -0.008,-0.015 -0.008,-0.008 0,-0.008 0,0"
        style="fill:#0f1177;fill-opacity:1;fill-rule:nonzero;stroke:none"
        id="path78"/>
</g>
    <g
            id="g80"
            transform="translate(101.4355,205.7686)">
<path
        d="M 0,0 C -0.102,0.02 -0.162,-0.004 0,0"
        style="fill:#0f1177;fill-opacity:1;fill-rule:nonzero;stroke:none"
        id="path82"/>
</g>
    <g
            id="g84"
            transform="translate(102.7656,206.4551)">
<path
        d="M 0,0 C 0,-0.004 -0.002,-0.007 -0.008,-0.012 0.133,0.109 0.082,0.078 0,0"
        style="fill:#0f1177;fill-opacity:1;fill-rule:nonzero;stroke:none"
        id="path86"/>
</g>
    <g
            id="g88"
            transform="translate(78.1426,174.6621)">
<path
        d="M 0,0 C 0.111,0.043 0.186,0.094 -0.035,-0.007 -0.027,-0.003 -0.012,0 0,0"
        style="fill:#0f1177;fill-opacity:1;fill-rule:nonzero;stroke:none"
        id="path90"/>
</g>
    <g
            id="g92"
            transform="translate(77.2832,174.1035)">
<path
        d="M 0,0 C -0.008,-0.012 -0.023,-0.023 -0.037,-0.035 -0.023,-0.023 -0.008,-0.012 0,0"
        style="fill:#0f1177;fill-opacity:1;fill-rule:nonzero;stroke:none"
        id="path94"/>
</g>
    <g
            id="g96"
            transform="translate(126.0059,178.2119)">
<path
        d="M 0,0 C -0.008,-0.007 -0.008,-0.007 0,0"
        style="fill:#0f1177;fill-opacity:1;fill-rule:nonzero;stroke:none"
        id="path98"/>
</g>
    <g
            id="g100"
            transform="translate(125.752,178.0547)">
<path
        d="M 0,0 C -0.082,-0.059 -0.059,-0.043 0.006,0 H 0"
        style="fill:#0f1177;fill-opacity:1;fill-rule:nonzero;stroke:none"
        id="path102"/>
</g>
    <g
            id="g104"
            transform="translate(115.0703,182.3066)">
<path
        d="M 0,0 C 0.016,0.016 0.023,0.026 0.039,0.042 0.023,0.031 0.016,0.016 0,0"
        style="fill:#0f1177;fill-opacity:1;fill-rule:nonzero;stroke:none"
        id="path106"/>
</g>
    <g
            id="g108"
            transform="translate(82.1133,201.6475)">
<path
        d="M 0,0 -0.023,-0.022 Z"
        style="fill:#0f1177;fill-opacity:1;fill-rule:nonzero;stroke:none"
        id="path110"/>
</g>
    <g
            id="g112"
            transform="translate(125.7578,178.0586)">
<path
        d="M 0,0 H -0.006 C -0.088,-0.062 -0.064,-0.047 0,0"
        style="fill:#0f1177;fill-opacity:1;fill-rule:nonzero;stroke:none"
        id="path114"/>
</g>
    <g
            id="g116"
            transform="translate(115.0703,182.3066)">
<path
        d="M 0,0 V 0 C 0.016,0.016 0.023,0.026 0.039,0.042 0.023,0.031 0.016,0.016 0,0"
        style="fill:#0f1177;fill-opacity:1;fill-rule:nonzero;stroke:none"
        id="path118"/>
</g>
    <g
            id="g120"
            transform="translate(71.2285,167.583)">
<path
        d="M 0,0 C -0.051,-0.016 -0.096,-0.031 -0.146,-0.047 -0.197,-0.069 -0.154,-0.054 0,0"
        style="fill:#0f1177;fill-opacity:1;fill-rule:nonzero;stroke:none"
        id="path122"/>
</g>
    <g
            id="g124"
            transform="translate(102.1953,158.1582)">
<path
        d="M 0,0 C 0.283,-0.151 0.582,-0.29 0.883,-0.41 0.898,-0.179 0.906,0.053 0.898,0.283 0.875,2.325 0.59,4.348 0.236,6.361 0.018,7.531 -0.217,8.697 -0.449,9.857 -1.76,8.125 -2.953,6.298 -4.02,4.391 -3.93,3.762 -3.645,3.152 -3.145,2.553 -2.275,1.515 -1.207,0.608 0,0"
        style="fill:#70b31d;fill-opacity:1;fill-rule:nonzero;stroke:none"
        id="path126"/>
</g>
    <g
            id="g128"
            transform="translate(131.8203,165.8047)">
<path
        d="m 0,0 c -0.691,-0.931 -1.764,-1.787 -2.906,-2.092 -5.645,-1.501 -11.637,-0.922 -17.367,-0.293 -0.631,0.066 -1.26,0.131 -1.885,0.197 -0.186,1.585 -0.502,3.156 -0.819,4.722 3.711,-0.316 7.409,-0.791 11.127,-1.008 C -7.969,1.307 -4.133,1.428 -0.299,2.044 1.092,2.268 0.377,0.509 0,0 m 7.682,21.008 c -8.364,0 -16.219,-2.172 -23.036,-5.981 1.571,-1.443 3.465,-2.531 5.565,-2.986 0.818,-0.173 1.219,-0.234 2.121,-0.169 0.178,0.015 0.348,0.026 0.525,0.054 h 0.016 c 0.02,0.008 0.047,0.012 0.078,0.018 0.192,0.043 0.963,0.326 0.709,0.204 0.096,0.043 0.186,0.09 0.281,0.136 0.075,0.043 0.151,0.09 0.229,0.14 0.008,0.011 0.023,0.022 0.037,0.031 0.074,0.057 0.148,0.123 0.217,0.18 0.019,0.015 0.039,0.036 0.055,0.047 0.207,0.209 0.419,0.409 0.64,0.598 0.069,0.08 0.131,0.158 0.139,0.161 0.07,0.085 0.138,0.178 0.207,0.263 0.14,0.197 0.287,0.394 0.418,0.591 0.07,0.1 0.135,0.196 0.201,0.297 -0.248,-0.395 -0.178,-0.29 0.199,0.304 -0.34,-0.528 0.09,0.167 0.147,0.266 0.121,0.214 0.24,0.425 0.355,0.641 0.111,0.213 0.225,0.429 0.324,0.644 0.032,0.055 0.325,0.684 0.202,0.371 0.439,1.158 1.412,2.076 2.533,2.584 0.523,0.237 2.174,0.534 1.726,-0.635 C 1.164,17.693 0.844,16.549 0.25,15.549 -0.244,14.711 -1.475,12.621 -2.994,11.169 -3.709,10.49 -4.441,9.911 -5.252,9.348 -6.428,8.526 -7.799,7.843 -9.199,7.488 c -2.455,-0.629 -5.096,-0.324 -7.342,0.857 -1.553,0.813 -2.982,1.899 -4.178,3.193 -0.711,-0.534 -1.404,-1.089 -2.082,-1.661 -0.982,-1.018 -1.974,-2.029 -2.969,-3.032 0.147,-0.741 0.286,-1.487 0.424,-2.231 0.108,-0.552 0.223,-1.108 0.334,-1.663 0.319,-1.558 0.639,-3.137 0.821,-4.719 0.156,-1.38 0.211,-2.77 0.056,-4.168 -0.162,-1.574 -0.795,-3.17 -1.974,-4.274 -1.545,-1.438 -3.45,-2.53 -5.604,-1.963 -1.4,0.366 -2.699,1.223 -3.789,2.152 -0.32,0.273 -0.635,0.554 -0.932,0.849 -2.064,-5.312 -3.199,-11.089 -3.199,-17.131 0,-18.098 10.182,-33.788 25.102,-41.746 -1.098,15.552 -1.606,25.85 -1.606,25.85 C -17.012,-16.973 1.346,2.867 28.27,5.598 33.373,6.115 38.316,5.937 43.004,5.146 34.338,14.875 21.729,21.008 7.682,21.008"
        style="fill:#70b31d;fill-opacity:1;fill-rule:nonzero;stroke:none"
        id="path130"/>
</g>
    <g
            id="g132"
            transform="translate(116.1895,201.8535)">
<path
        d="M 0,0 C -0.002,-0.003 -0.002,-0.004 -0.004,-0.006 0.008,-0.002 0.02,0.003 0.033,0.006 H 0.035 C 0.023,0.003 0.012,0.003 0,0"
        style="fill:#0f1177;fill-opacity:1;fill-rule:nonzero;stroke:none"
        id="path134"/>
</g>
    <g
            id="g136"
            transform="translate(116.168,201.8457)">
<path
        d="m 0,0 0.002,0.003 -0.004,-0.005 c -0.002,-0.001 -0.002,-0.002 -0.002,-0.002 0.002,0 0.004,0.001 0.008,0.001 C 0.004,-0.002 0.006,0 0.01,0.003 0.006,0 0.004,0 0,0"
        style="fill:#0f1177;fill-opacity:1;fill-rule:nonzero;stroke:none"
        id="path138"/>
</g>
    <g
            id="g140"
            transform="translate(116.1523,201.8418)">
<path
        d="m 0,0 c -0.004,-0.002 -0.008,-0.004 -0.006,-0.004 0.002,0 0.004,0 0.004,0.004 H 0"
        style="fill:#0f1177;fill-opacity:1;fill-rule:nonzero;stroke:none"
        id="path142"/>
</g>
    <g
            id="g144"
            transform="translate(116.2324,201.8633)">
<path
        d="m 0,0 c -0.004,0 -0.006,0 -0.008,-0.004 v 0.002 c 0.004,0 0.008,0.001 0.012,0.003 C -0.008,-0.002 -0.004,-0.002 0,0"
        style="fill:#0f1177;fill-opacity:1;fill-rule:nonzero;stroke:none"
        id="path146"/>
</g>
    <g
            id="g148"
            transform="translate(116.1504,201.8418)">
<path
        d="m 0,0 c 0,-0.002 -0.002,-0.004 -0.004,-0.004 0.002,0 0.008,0 0.014,0.002 C 0.012,0 0.014,0.001 0.016,0.002 0.012,0 0.004,0 0,0"
        style="fill:#0f1177;fill-opacity:1;fill-rule:nonzero;stroke:none"
        id="path150"/>
</g>
    <g
            id="g152"
            transform="translate(116.2324,201.8633)">
<path
        d="M 0,0 C 0.002,0 0.002,0.001 0.004,0.001 0.012,0.006 0.006,0.003 0,0"
        style="fill:#0f1177;fill-opacity:1;fill-rule:nonzero;stroke:none"
        id="path154"/>
</g>
    <g
            id="g156"
            transform="translate(117.0723,203.123)">
<path
        d="M 0,0 C -0.039,-0.066 -0.078,-0.134 -0.119,-0.198 -0.057,-0.094 -0.02,-0.034 0,0 M 3.238,3.004 C 2.072,2.688 1,1.762 0.416,0.721 0.289,0.5 0.166,0.285 0.035,0.065 0.029,0.053 0.023,0.041 0.016,0.031 0.004,0.012 -0.121,-0.191 -0.158,-0.252 -0.303,-0.463 -0.459,-0.672 -0.613,-0.893 -0.689,-1 -0.775,-1.113 -0.863,-1.221 c -0.024,-0.022 -0.043,-0.043 -0.073,-0.068 0,0.003 0.008,0.003 0.008,0.003 0.022,0.019 0.041,0.038 0.061,0.061 l 0.002,0.002 c -0.004,-0.006 -0.008,-0.015 -0.014,-0.02 0.012,0.011 0.104,0.103 0.096,0.092 -0.016,-0.019 -0.037,-0.046 -0.072,-0.088 0.003,0.003 0.003,0 0.003,0.003 0.17,0.112 0.135,0.085 0.004,-0.007 0.198,0.097 0.108,0.042 0.012,-0.016 0,0 -0.006,-0.003 -0.012,-0.003 0,-0.002 0,-0.002 -0.002,-0.002 -0.017,-0.01 -0.029,-0.017 -0.048,-0.03 0.003,0.007 0.005,0.011 0.011,0.019 -0.006,-0.002 -0.009,-0.004 -0.013,-0.005 -0.004,-10e-4 -0.006,-0.003 -0.01,-0.006 -0.008,-0.012 -0.008,-0.012 -0.012,-0.019 -0.012,-0.004 -0.027,-0.011 -0.039,-0.016 0,0 0.002,0 0.002,10e-4 l -0.008,-0.005 v -0.004 h -0.004 c -0.039,-0.038 0,-0.003 -0.113,-0.11 0.039,0.034 0.074,0.077 0.109,0.11 -0.023,-0.019 -0.023,-0.015 -0.054,-0.038 0.031,0.019 0.054,0.047 0.093,0.078 -0.136,-0.043 -0.271,-0.082 -0.41,-0.116 -0.32,-0.077 -0.707,-0.194 -1.029,-0.228 -0.795,-0.077 -1.523,-0.575 -2.064,-1.136 -0.28,-0.284 -1.241,-1.5 -0.415,-1.761 0.415,-0.132 0.739,-0.271 1.209,-0.275 0.452,-0.004 0.926,0.108 1.358,0.228 1.135,0.323 2.16,0.968 3.076,1.698 1.547,1.232 2.623,2.877 3.457,4.645 0.42,0.899 0,1.516 -1.008,1.238"
        style="fill:#0f1177;fill-opacity:1;fill-rule:nonzero;stroke:none"
        id="path158"/>
</g>
    <g
            id="g160"
            transform="translate(219.7734,85.3848)">
<path
        d="m 0,0 c -3.006,24.952 -6.562,48.133 -6.562,48.133 -2.993,19.441 -18.342,34.051 -38.387,37.433 -4.688,0.791 -9.631,0.969 -14.735,0.452 -26.923,-2.731 -45.281,-22.571 -44.406,-47.797 0,0 0.508,-10.298 1.606,-25.85 1.019,-14.431 2.546,-33.385 4.648,-52.841 0.016,-0.132 0.039,-0.35 0.063,-0.558 -45.096,8.249 -79.307,47.665 -79.307,95.14 0,53.466 43.344,96.807 96.809,96.807 53.46,0 96.804,-43.341 96.804,-96.807 C 16.533,34.068 10.438,15.448 0,0 m -12.643,1.632 c -4.199,-7.771 -12.685,-11.548 -22.687,-13.13 -4.322,-3.7 -10.297,-6.158 -18.643,-7.015 -22.441,-2.275 -31.136,9.226 -35.802,25.409 0,0 -1.385,3.916 3.076,4.371 l 57.658,5.864 c 2.275,0.223 3.389,-1.273 3.92,-2.531 0.641,1.188 1.992,2.257 3.975,2.458 9.591,0.976 11.375,-10.114 8.503,-15.426 m -20.673,49.533 c 1.312,-12.825 -8.03,-24.28 -20.854,-25.588 -12.83,-1.302 -24.279,8.041 -25.584,20.87 -1.305,12.824 8.033,24.268 20.865,25.58 12.825,1.297 24.276,-8.037 25.573,-20.862 m -46.955,142.45 c -77.045,0 -139.502,-62.459 -139.502,-139.503 0,-72.671 55.587,-132.301 126.552,-138.844 v -0.024 c 4.11,-0.363 8.25,-0.629 12.455,-0.629 0.088,0 0.178,0.012 0.262,0.012 0.078,0 0.156,-0.012 0.233,-0.012 0.98,0 1.929,0.127 2.896,0.146 3.199,0.077 6.395,0.189 9.535,0.483 2.813,0.246 5.57,0.671 8.334,1.08 1.203,0.19 2.414,0.336 3.611,0.556 3.426,0.601 6.791,1.361 10.124,2.21 0.267,0.07 0.533,0.135 0.792,0.205 59.922,15.657 104.206,69.994 104.206,134.817 0,77.044 -62.456,139.503 -139.498,139.503"
        style="fill:#0f1177;fill-opacity:1;fill-rule:nonzero;stroke:none"
        id="path162"/>
</g>
    <g
            id="g164"
            transform="translate(116.1055,201.7979)">
<path
        d="M 0,0 0.008,0.007 V 0.005 c 0.023,0.016 0.031,0.018 0.049,0.034 0.002,0.003 0.002,0.003 0.002,0.005 0,0 -0.002,-0.002 -0.004,-0.002 C 0.039,0.031 0.014,0.016 0.014,0.013 0.021,0.022 0.033,0.032 0.041,0.04 0.039,0.04 0.039,0.039 0.039,0.039 0.021,0.027 0.014,0.016 0,0"
        style="fill:#0f1177;fill-opacity:1;fill-rule:nonzero;stroke:none"
        id="path166"/>
</g>
    <g
            id="g168"
            transform="translate(116.2012,201.8652)">
<path
        d="m 0,0 0.006,0.006 c 0.002,0 0.008,0.002 0.002,-0.002 C 0.016,0.008 0.02,0.01 0.023,0.015 0.016,0.01 0.02,0.015 0.008,0.008 c 0.006,0 0.002,0 -0.002,-0.002 0,0 0.002,0 0.002,0.002 C 0.002,0.004 0.002,0.004 0.004,0.004 -0.002,0.002 -0.008,0 0.004,0.008 H 0.008 C 0.012,0.015 0.016,0.015 0.016,0.019 -0.018,-0.003 -0.016,-0.006 -0.023,-0.011 -0.016,-0.008 -0.008,-0.004 0,0"
        style="fill:#0f1177;fill-opacity:1;fill-rule:nonzero;stroke:none"
        id="path170"/>
</g>
    <g
            id="g172"
            transform="translate(116.1738,201.8525)">
<path
        d="M 0,0 C 0.004,0.004 -0.002,0 0.012,0.017 0.016,0.021 0.016,0.022 0.02,0.027 0.016,0.022 -0.01,-0.001 -0.021,-0.011 -0.016,-0.009 -0.01,-0.005 0,0"
        style="fill:#0f1177;fill-opacity:1;fill-rule:nonzero;stroke:none"
        id="path174"/>
</g>
    <g
            id="g176"
            transform="translate(116.1777,201.8545)">
<path
        d="M 0,0 -0.004,-0.002 -0.008,-0.006 C -0.004,-0.003 0,-0.001 0,0"
        style="fill:#0f1177;fill-opacity:1;fill-rule:nonzero;stroke:none"
        id="path178"/>
</g>
    <g
            id="g180"
            transform="translate(116.0977,201.7939)">
<path
        d="M 0,0 H 0.004 Z"
        style="fill:#0f1177;fill-opacity:1;fill-rule:nonzero;stroke:none"
        id="path182"/>
</g>
    <g
            id="g184"
            transform="translate(146.8398,78.1309)">
<path
        d="m 0,0 c -1.652,4.877 -2.014,9.057 1.293,9.894 3.33,0.867 15.684,3.016 27.236,5.019 2.592,0.497 6.362,1.223 7.746,2.257 C 34.771,17.043 -4,13.157 -6.211,12.926 -10.055,12.54 -3.889,3.508 0,0"
        style="fill:#0f1177;fill-opacity:1;fill-rule:nonzero;stroke:none"
        id="path186"/>
</g>
    <g
            id="g188"
            transform="translate(66.4473,163.9707)">
<path
        d="M 0,0 C -0.016,-0.004 -0.033,-0.011 -0.055,-0.019 -0.039,-0.014 -0.021,-0.007 0,0"
        style="fill:#0f1177;fill-opacity:1;fill-rule:nonzero;stroke:none"
        id="path190"/>
</g>
    <g
            id="g192"
            transform="translate(200.0781,96.5088)">
<path
        d="m 0,0 c -2.254,0.552 -4.861,-0.591 -5.834,-3.45 -0.902,-4.563 -2.223,-8.7 -4.229,-12.279 3.958,1.453 10.44,4.509 11.946,9.362 C 2.639,-3.912 2.527,-0.61 0,0"
        style="fill:#0f1177;fill-opacity:1;fill-rule:nonzero;stroke:none"
        id="path194"/>
</g>
    <g
            id="g196"
            transform="translate(169.8359,134.8574)">
<path
        d="m 0,0 c 0.369,-3.644 -2.287,-6.893 -5.922,-7.259 -3.646,-0.374 -6.898,2.277 -7.273,5.919 -0.371,3.639 2.283,6.896 5.925,7.266 C -3.627,6.288 -0.369,3.638 0,0 m -8.258,15.668 c -9.019,-0.926 -15.582,-8.971 -14.683,-18.004 0.933,-9.019 8.982,-15.58 18.005,-14.677 C 4.09,-16.079 10.65,-8.037 9.746,0.991 8.813,10.02 0.771,16.578 -8.258,15.668"
        style="fill:#0f1177;fill-opacity:1;fill-rule:nonzero;stroke:none"
        id="path198"/>
</g>
    <g
            id="g200"
            transform="translate(82.4414,196.3389)">
<path
        d="m 0,0 c -0.051,-0.251 -0.104,-0.49 -0.17,-0.736 -0.004,0.004 -0.008,0.007 -0.008,0.011 0,-0.004 -0.004,-0.007 -0.004,-0.007 -0.154,0.177 -0.285,0.397 -0.394,0.573 -0.713,1.189 -0.57,2.879 -0.242,4.16 0.088,0.339 0.213,0.66 0.357,0.973 0.047,0.086 0.15,0.231 0.225,0.335 0,0 0,-0.003 0.007,-0.003 V 5.309 C -0.088,5.278 0.057,5.232 0.187,5.183 0.15,4.274 0.211,3.369 0.293,2.462 0.25,1.632 0.166,0.811 0,0 M -0.318,5.309 C -0.326,5.302 -0.332,5.293 -0.344,5.286 c 0.012,0.007 0.018,0.016 0.024,0.023 z m -9.043,-6.703 c -0.159,-0.66 -0.328,-1.4 -0.522,-2.097 -0.215,0.32 -0.359,0.69 -0.482,1.037 -0.551,1.539 -0.59,3.006 -0.176,4.576 0.088,0.316 0.184,0.629 0.328,0.93 0.076,0.166 0.123,0.247 0.176,0.328 0,0 0.004,0.008 0.008,0.008 C -9.84,3.411 -9.658,3.376 -9.48,3.33 -9.133,3.233 -8.824,3.06 -8.535,2.855 -8.756,1.428 -9.029,0.016 -9.361,-1.394 M 9,7.968 C 7.82,9.129 6.555,10.707 6.168,12.378 6.139,12.532 6.111,12.683 6.084,12.837 5.883,13.883 3.303,12.127 3.438,11.177 3.496,10.746 3.561,10.337 3.652,9.938 3.789,9.149 3.893,8.357 3.926,7.555 3.971,6.439 3.955,5.325 3.893,4.213 3.838,3.122 3.691,2.037 3.445,0.977 3.311,1.478 3.244,2.006 3.176,2.423 3.176,2.458 3.168,2.493 3.16,2.523 3.303,4.226 3.102,5.995 2.859,7.601 2.781,8.106 2.248,7.987 1.682,7.651 1.555,7.644 1.416,7.628 1.283,7.601 -0.949,7.69 -2.82,5.401 -3.598,3.399 -4.086,2.146 -4.379,0.792 -4.484,-0.555 c -0.012,-0.092 -0.02,-0.194 -0.02,-0.29 -0.066,0.109 -0.127,0.22 -0.185,0.332 -0.469,0.876 -0.67,1.825 -0.764,2.813 -0.115,1.219 -0.016,2.454 -0.063,3.677 0.01,0.073 0.018,0.15 0.026,0.22 0.144,1.335 0.238,2.677 0.301,4.02 0.023,0.555 -0.897,0.26 -1.12,0.162 C -7.012,10.056 -7.645,9.472 -7.91,8.739 -8.338,7.582 -8.346,6.296 -8.307,5.081 V 4.882 c -0.332,0.072 -0.672,0.08 -1.043,-0.009 -1.103,-0.251 -1.98,-1.234 -2.504,-2.184 -0.882,-1.585 -1.115,-3.584 -0.929,-5.282 0.119,-1.081 0.371,-2.594 1.258,-3.318 1.291,-1.073 3.009,0.83 3.556,1.891 0.217,0.425 0.371,0.883 0.533,1.333 0.352,-0.719 0.842,-1.341 1.506,-1.726 1.041,-0.608 2.457,0.481 3.201,1.346 0.452,-0.455 1.053,-0.692 1.784,-0.495 0.802,0.213 1.535,0.68 2.136,1.283 0.202,-0.301 0.448,-0.565 0.784,-0.765 0.466,-0.29 1.408,0.373 1.724,0.641 C 5.883,-0.532 6.588,2.033 6.76,4.78 7.18,4.298 7.607,3.812 8.006,3.308 8.939,2.13 9.352,0.842 9,-0.617 8.754,-0.451 8.516,-0.182 8.438,0.101 8.082,1.385 4.996,-0.775 5.254,-1.895 5.436,-2.682 5.93,-3.253 6.693,-3.526 c 1.012,-0.363 2.137,0.08 2.995,0.605 2.318,1.424 3.476,4.657 2.345,7.173 C 11.389,5.68 10.096,6.883 9,7.968"
        style="fill:#0f1177;fill-opacity:1;fill-rule:nonzero;stroke:none"
        id="path202"/>
</g>
    <g
            id="g204"
            transform="translate(116.209,201.8691)">
<path
        d="M 0,0 C -0.002,-0.002 -0.004,-0.003 -0.008,-0.004 V -0.005 C -0.004,-0.005 0,0 0,0"
        style="fill:#0f1177;fill-opacity:1;fill-rule:nonzero;stroke:none"
        id="path206"/>
</g>
    <g
            id="g208"
            transform="translate(116.1055,201.7979)">
<path
        d="M 0,0 C -0.002,-0.001 -0.002,-0.002 -0.004,-0.004 -0.002,-0.004 0,-0.002 0,0"
        style="fill:#0f1177;fill-opacity:1;fill-rule:nonzero;stroke:none"
        id="path210"/>
</g>
    <g
            id="g212"
            transform="translate(116.1895,201.8535)">
<path
        d="M 0,0 C 0.008,0.003 0.008,0.003 0.012,0.011 0.004,0.006 -0.004,0 -0.012,-0.005 c 0.004,0 0.008,0 0.012,0.005"
        style="fill:#0f1177;fill-opacity:1;fill-rule:nonzero;stroke:none"
        id="path214"/>
</g>
    <g
            id="g216"
            transform="translate(60.9395,162.6797)">
<path
        d="m 0,0 c -0.285,-0.36 -0.828,-1.362 -0.102,-1.613 0.905,-0.309 2.192,0.66 2.739,1.277 0.052,0.065 0.105,0.123 0.16,0.177 C 2.715,-0.232 2.703,-0.244 2.971,0.022 2.912,-0.035 2.857,-0.094 2.797,-0.159 2.861,-0.094 2.971,0.006 3.018,0.046 3.047,0.068 3.066,0.088 3.086,0.099 3.082,0.099 3.078,0.096 3.074,0.096 2.584,-0.244 3.402,0.362 3.086,0.099 3.236,0.203 3.395,0.301 3.553,0.396 3.594,0.424 3.785,0.523 3.861,0.574 3.967,0.624 4.076,0.679 4.189,0.736 4.582,0.926 4.986,1.09 5.393,1.249 5.416,1.258 5.434,1.266 5.451,1.272 5.119,1.156 5.789,1.405 5.508,1.291 5.516,1.295 5.523,1.3 5.531,1.3 5.689,1.357 5.852,1.407 6.014,1.457 6.322,1.554 6.619,1.666 6.93,1.785 6.551,1.639 7.26,1.894 7.252,1.894 c 0.937,0.309 1.91,0.528 2.883,0.698 3.603,0.64 7.773,0.467 11.57,0.393 3.457,-0.061 6.914,-0.197 10.367,-0.393 0.807,1.1 1.748,2.102 2.528,2.967 0.379,0.413 0.765,0.826 1.15,1.231 C 33.943,6.863 32.146,6.925 30.348,6.986 26.221,7.121 22.076,7.203 17.949,7.056 14.521,6.933 11.18,6.42 7.971,5.189 7.869,5.146 7.809,5.119 7.77,5.107 7.662,5.068 7.543,5.029 7.43,4.984 7.021,4.841 6.611,4.687 6.211,4.521 5.418,4.189 4.654,3.753 3.912,3.316 2.43,2.453 1.07,1.342 0,0"
        style="fill:#0f1177;fill-opacity:1;fill-rule:nonzero;stroke:none"
        id="path218"/>
</g>
    <g
            id="g220"
            transform="translate(131.5215,167.8486)">
<path
        d="m 0,0 c -3.834,-0.616 -7.67,-0.737 -11.551,-0.518 -3.719,0.217 -7.416,0.692 -11.127,1.008 0.317,-1.566 0.633,-3.136 0.819,-4.721 0.625,-0.067 1.254,-0.132 1.884,-0.198 5.731,-0.629 11.723,-1.208 17.368,0.293 1.142,0.305 2.214,1.161 2.906,2.092 C 0.676,-1.535 1.391,0.224 0,0"
        style="fill:#0f1177;fill-opacity:1;fill-rule:nonzero;stroke:none"
        id="path222"/>
</g>
    <g
            id="g224"
            transform="translate(98.3027,164.0176)">
<path
        d="m 0,0 c 0.008,0 0.119,0.289 0.135,0.32 0.074,0.162 0.162,0.316 0.25,0.467 V 0.791 C 0.396,0.807 0.4,0.818 0.408,0.829 0.42,0.85 0.439,0.88 0.459,0.906 0.562,1.061 0.672,1.208 0.779,1.357 0.895,1.505 1.01,1.65 1.123,1.795 1.148,1.83 1.227,1.917 1.285,1.987 1.527,2.266 1.768,2.535 2.014,2.797 2.469,3.292 2.924,3.778 3.391,4.26 3.408,4.173 3.426,4.086 3.443,3.998 3.676,2.838 3.91,1.672 4.129,0.502 c 0.353,-2.014 0.639,-4.036 0.662,-6.078 0.008,-0.231 0,-0.462 -0.016,-0.694 -0.3,0.121 -0.599,0.259 -0.882,0.411 -1.207,0.608 -2.276,1.514 -3.145,2.552 -0.5,0.6 -0.785,1.209 -0.875,1.838 C -0.193,-0.991 -0.15,-0.503 0,0 m 2.5,35.901 c -0.008,0.812 0.064,1.606 0.215,2.401 0.086,0.427 0.197,0.848 0.324,1.269 0.066,0.212 0.139,0.42 0.217,0.632 0.094,0.11 0.15,0.244 0.166,0.407 v 0.003 c 0.08,0.19 0.174,0.374 0.258,0.559 0.359,-0.602 0.48,-1.38 0.632,-2.041 0.834,-3.572 0.885,-7.254 0.719,-10.9 C 4.963,26.77 4.746,25.342 4.41,23.964 c -0.482,2.107 -0.93,4.21 -1.305,6.337 -0.32,1.85 -0.589,3.722 -0.605,5.6 M -7.74,18.636 C -7.848,17.992 -8.033,17.362 -8.203,16.733 -8.289,16.414 -8.389,16.089 -8.48,15.769 -8.535,15.604 -8.59,15.441 -8.643,15.279 -8.654,15.233 -8.797,14.862 -8.809,14.816 -8.928,14.523 -9.061,14.233 -9.197,13.948 -9.275,13.794 -9.361,13.644 -9.441,13.496 -9.453,13.478 -9.461,13.462 -9.469,13.446 -9.48,13.432 -9.492,13.416 -9.5,13.4 -9.516,13.377 -9.531,13.35 -9.553,13.331 -9.576,13.322 -9.6,13.314 -9.615,13.312 c -0.012,-0.005 -0.016,-0.005 -0.024,-0.008 -0.023,0 -0.039,-0.004 -0.062,-0.004 -0.08,-0.007 -0.162,-0.007 -0.242,-0.004 0.072,0 -0.151,0.018 -0.205,0.035 -0.108,0.027 -0.207,0.076 -0.309,0.115 -0.023,0.011 -0.147,0.093 -0.178,0.109 -0.176,0.134 -0.326,0.311 -0.461,0.49 -0.338,0.439 -0.41,0.671 -0.541,1.123 -0.162,0.543 -0.244,1.115 -0.283,1.682 -0.018,0.258 -0.021,0.521 -0.021,0.782 0,0.124 0.003,0.256 0.011,0.383 0,0.036 0.002,0.057 0.002,0.081 v 0.027 c 0.067,0.637 0.209,1.273 0.364,1.895 0.134,0.555 0.312,1.11 0.509,1.646 0.004,0.005 0.11,0.256 0.119,0.29 0.063,0.144 0.125,0.278 0.194,0.416 0.127,0.274 0.269,0.537 0.424,0.796 -0.1,-0.178 0.123,0.162 0.271,0.369 0.108,0.009 0.361,0.051 0.44,0.051 0.011,0 0.261,-0.02 0.269,-0.011 0.117,-0.024 0.229,-0.047 0.34,-0.073 0.012,0 0.019,-0.004 0.027,-0.004 0.524,-0.208 1.034,-0.476 1.535,-0.734 -0.103,-1.412 -0.103,-2.848 -0.304,-4.128 m 22.189,7.798 c 0.051,0.308 0.115,0.609 0.197,0.902 0.045,0.151 0.092,0.298 0.143,0.439 v 0.005 c 0.008,0.02 0.02,0.042 0.033,0.074 0.016,0.038 0.049,0.103 0.09,0.181 0.59,0.02 1.277,-0.281 1.801,-0.752 1.008,-0.911 0.803,-2.142 0.433,-3.276 -0.007,-0.034 -0.05,-0.142 -0.078,-0.22 -0.06,-0.136 -0.123,-0.264 -0.187,-0.391 -0.213,-0.388 -0.438,-0.771 -0.66,-1.157 -0.012,-0.018 -0.194,-0.297 -0.225,-0.367 -0.098,-0.149 -0.193,-0.296 -0.289,-0.438 -0.174,-0.256 -0.344,-0.506 -0.521,-0.748 -0.307,0.655 -0.51,1.322 -0.657,2.16 -0.111,0.605 -0.16,1.211 -0.183,1.824 -0.032,0.814 0,1.132 0.103,1.764 M 1.805,-10.386 c 2.154,-0.567 4.058,0.525 5.603,1.963 1.18,1.104 1.813,2.7 1.975,4.275 C 9.537,-2.751 9.482,-1.361 9.326,0.02 9.145,1.602 8.824,3.18 8.506,4.738 8.395,5.293 8.279,5.85 8.172,6.401 8.033,7.146 7.895,7.891 7.748,8.632 c 0.994,1.003 1.986,2.014 2.969,3.034 0.617,0.637 1.23,1.277 1.838,1.924 0.078,-0.092 0.162,-0.177 0.244,-0.265 1.195,-1.294 2.625,-2.38 4.178,-3.193 2.246,-1.181 4.886,-1.486 7.341,-0.857 1.401,0.355 2.772,1.038 3.948,1.86 0.81,0.563 1.543,1.142 2.257,1.821 1.52,1.452 2.75,3.542 3.245,4.38 0.593,1 0.914,2.144 1.32,3.218 0.447,1.169 -1.203,0.872 -1.727,0.635 -1.121,-0.508 -2.093,-1.426 -2.533,-2.584 0.123,0.313 -0.17,-0.316 -0.201,-0.371 -0.1,-0.214 -0.213,-0.431 -0.324,-0.644 -0.116,-0.216 -0.235,-0.427 -0.356,-0.641 -0.056,-0.099 -0.486,-0.794 -0.146,-0.265 -0.377,-0.595 -0.447,-0.7 -0.199,-0.305 -0.067,-0.101 -0.131,-0.197 -0.202,-0.297 -0.13,-0.197 -0.277,-0.394 -0.418,-0.591 -0.068,-0.085 -0.136,-0.178 -0.207,-0.262 -0.007,-0.004 -0.07,-0.082 -0.138,-0.162 -0.221,-0.189 -0.434,-0.389 -0.641,-0.598 -0.016,-0.011 -0.035,-0.031 -0.055,-0.047 -0.068,-0.057 -0.142,-0.123 -0.216,-0.18 -0.014,-0.009 -0.03,-0.02 -0.038,-0.031 -0.078,-0.05 -0.154,-0.097 -0.228,-0.14 -0.096,-0.046 -0.186,-0.092 -0.281,-0.135 0.254,0.121 -0.516,-0.162 -0.709,-0.205 -0.032,-0.006 -0.059,-0.01 -0.078,-0.018 h -0.016 c -0.178,-0.027 -0.348,-0.039 -0.525,-0.054 -0.903,-0.065 -1.303,-0.004 -2.121,0.169 -2.1,0.455 -3.995,1.543 -5.565,2.986 -0.496,0.457 -0.961,0.948 -1.389,1.465 0.079,0.091 0.17,0.2 0.186,0.217 0.301,0.348 0.598,0.698 0.891,1.055 1.269,1.546 2.353,3.267 3.322,5.023 0.726,1.316 1.213,3.017 0.965,4.522 -0.254,1.57 -1.659,2.751 -3.188,3.007 -2.129,0.353 -4.297,-0.673 -5.859,-2.065 -1.467,-1.309 -2.52,-2.837 -3.125,-4.712 -0.803,-2.5 -0.746,-5.559 0.25,-7.995 0.222,-0.547 0.486,-1.079 0.779,-1.585 C 9.916,14.573 8.809,13.42 7.717,12.258 7.527,12.057 7.338,11.856 7.145,11.66 c -0.452,2.211 -0.918,4.413 -1.416,6.609 0.05,0.089 0.109,0.174 0.158,0.263 0.972,1.62 1.738,3.346 2.369,5.123 1.213,3.435 1.506,7.05 1.42,10.669 -0.041,1.829 -0.203,3.655 -0.518,5.451 -0.15,0.85 -0.349,1.678 -0.594,2.5 -0.242,0.811 -0.509,1.676 -1.021,2.358 -1.154,1.562 -3.268,0.375 -4.445,-0.478 -1.336,-0.968 -2.338,-2.42 -3.09,-3.87 -1.713,-3.307 -1.903,-6.922 -1.483,-10.556 0.463,-4.056 1.377,-8.044 2.215,-12.032 0.1,-0.469 0.194,-0.936 0.285,-1.403 -0.234,-0.348 -0.478,-0.69 -0.701,-1.045 -0.308,-0.472 -0.617,-0.942 -0.949,-1.4 -0.047,-0.075 -0.102,-0.141 -0.154,-0.214 -0.039,0.024 -0.084,0.047 -0.129,0.073 0.209,-0.114 -0.108,0.091 -0.123,0.101 -0.119,0.093 -0.235,0.189 -0.35,0.293 -0.322,0.282 -0.596,0.602 -0.842,0.954 -0.119,0.166 -0.224,0.342 -0.312,0.52 -0.051,0.089 -0.09,0.186 -0.131,0.278 -0.012,0.019 -0.016,0.031 -0.02,0.039 -0.003,0.014 -0.015,0.053 -0.046,0.146 -0.776,2.245 -0.483,4.889 -0.436,7.223 0.016,0.787 0.027,1.574 0.043,2.369 0,0.393 -0.295,0.514 -0.648,0.514 -0.834,0.542 -1.733,0.964 -2.721,1.064 -0.498,0.116 -1.008,0.178 -1.539,0.127 -2.285,-0.181 -4.283,-1.84 -5.854,-3.376 -2.381,-2.337 -3.699,-5.51 -4.957,-8.537 -0.457,-1.097 -0.793,-2.235 -1.205,-3.346 -0.008,-0.027 -0.055,-0.155 -0.08,-0.231 -0.043,-0.098 -0.08,-0.205 -0.127,-0.305 -0.109,-0.263 -0.232,-0.521 -0.359,-0.776 -0.012,-0.02 -0.028,-0.054 -0.051,-0.093 -0.297,0.112 -0.598,0.378 -0.848,0.691 -0.765,0.965 -1.019,2.218 -1.132,3.422 -0.098,1.1 -0.034,2.203 0.136,3.283 0.088,0.577 0.221,1.143 0.371,1.703 0.061,0.243 0.137,0.481 0.215,0.725 0.039,0.116 0.086,0.231 0.127,0.347 0.016,0.043 0.024,0.077 0.035,0.104 0.012,0.027 0.039,0.074 0.078,0.17 0.084,0.216 0.192,0.424 0.293,0.632 0.045,0.102 0.104,0.2 0.162,0.298 0.008,0.023 0.077,0.135 0.124,0.216 0.07,0.092 0.185,0.24 0.23,0.3 0.016,0.015 0.031,0.032 0.051,0.05 0.027,-0.007 0.363,0.221 0.297,0.209 0.023,0.012 0.047,0.024 0.074,0.035 -0.119,-0.062 0.285,0.084 0.32,0.092 -0.123,-0.008 -0.084,-0.004 0.108,0.016 0.181,0.019 0.359,0.007 0.533,0 0.285,-0.012 0.486,-0.077 0.74,-0.182 1.227,-0.523 4.469,2.454 3.066,3.172 -4.957,2.551 -9.566,-2.62 -11.709,-6.562 -1.087,-1.999 -1.898,-4.164 -2.593,-6.329 -0.27,-0.848 -0.471,-1.717 -0.666,-2.58 -0.282,0.682 -0.469,1.419 -0.715,2.118 0.008,0.138 -0.018,0.262 -0.086,0.374 -0.084,0.13 -0.147,0.266 -0.231,0.398 -0.552,0.852 -3.181,-1.174 -2.835,-2.03 0.619,-1.541 0.658,-3.261 1.644,-4.65 0.982,-1.378 2.836,-0.201 3.674,0.749 1.385,1.567 1.578,3.692 2.164,5.621 0.119,0.398 0.246,0.799 0.377,1.193 -0.053,-1.088 0.008,-2.173 0.201,-3.211 0.213,-1.146 0.744,-2.488 1.637,-3.269 1.295,-1.137 3.117,-0.627 4.443,0.164 2.207,1.305 3.369,3.467 4.244,5.748 0.125,-1.176 0.494,-2.307 1.244,-3.152 0.895,-1.008 2.223,-1.049 3.45,-0.775 1.765,0.389 3.339,1.548 4.537,2.906 0.515,-1.26 1.396,-2.381 2.654,-2.914 1.57,-0.663 3.576,0.642 4.711,1.593 0.471,0.397 0.906,0.827 1.311,1.282 C 2.129,10.854 2.469,9.075 2.809,7.3 2.117,6.605 1.432,5.907 0.756,5.197 0.369,4.792 -0.016,4.383 -0.395,3.967 -1.178,3.103 -2.115,2.096 -2.918,1 -4.236,-0.81 -5.193,-2.866 -4.5,-4.988 c 0.309,-0.942 0.896,-1.71 1.584,-2.397 0.297,-0.295 0.611,-0.576 0.932,-0.849 1.089,-0.929 2.388,-1.786 3.789,-2.152"
        style="fill:#0f1177;fill-opacity:1;fill-rule:nonzero;stroke:none"
        id="path226"/>
        </g>
        </g>
        </g>
    </g>
</svg>
